STARTFONT 2.1
COMMENT  
COMMENT  Public domain font.  Share and enjoy.
COMMENT  
COMMENT  WARNING:  This bdf file was generated from a font server using
COMMENT  fstobdf.  The resulting font is subject to the same copyright,
COMMENT  license, and trademark restrictions as the original font.  The
COMMENT  authors and distributors of fstobdf disclaim all liability for
COMMENT  misuse of the program or its output.
COMMENT  
FONT -Xxl-LedFixed-Medium-R-SemiCondensed--39-120-75-75-C-180-ISO8859-1
SIZE 36 75 75
FONTBOUNDINGBOX 6 13 0 -2
STARTPROPERTIES 25
FONTNAME_REGISTRY ""
FOUNDRY "Led"
FAMILY_NAME "Fixed"
WEIGHT_NAME "Medium"
SLANT "R"
SETWIDTH_NAME "SemiCondensed"
ADD_STYLE_NAME ""
PIXEL_SIZE 39
POINT_SIZE 360
RESOLUTION_X 75
RESOLUTION_Y 75
SPACING "C"
AVERAGE_WIDTH 180
CHARSET_REGISTRY "ISO8859"
CHARSET_ENCODING "1"
COPYRIGHT "Public domain font.  Share and enjoy."
CAP_HEIGHT 9
X_HEIGHT 18
FONT "-Xxl-LedFixed-Medium-R-SemiCondensed--39-120-75-75-C-180-ISO8859-1"
WEIGHT 10
RESOLUTION 103
QUAD_WIDTH 18
DEFAULT_CHAR 0
FONT_ASCENT 33
FONT_DESCENT 6
ENDPROPERTIES
CHARS 219
STARTCHAR C000
ENCODING 0
SWIDTH 1440 0
DWIDTH 18 0
BBX 15 27 0 0
BITMAP
c30c00
c30c00
000000
000000
000000
000000
c00c00
c00c00
000000
000000
000000
000000
c00c00
c00c00
000000
000000
000000
000000
c00c00
c00c00
000000
000000
000000
000000
c30c00
c30c00
000000
ENDCHAR
STARTCHAR C001
ENCODING 1
SWIDTH 1440 0
DWIDTH 18 0
BBX 15 15 0 6
BITMAP
030000
030000
000000
1b6000
1b6000
000000
db6c00
db6c00
000000
1b6000
1b6000
000000
030000
030000
000000
ENDCHAR
STARTCHAR C002
ENCODING 2
SWIDTH 1440 0
DWIDTH 18 0
BBX 18 39 0 -6
BITMAP
c30c00
c30c00
000000
186180
186180
000000
c30c00
c30c00
000000
186180
186180
000000
c30c00
c30c00
000000
186180
186180
000000
c30c00
c30c00
000000
186180
186180
000000
c30c00
c30c00
000000
186180
186180
000000
c30c00
c30c00
000000
186180
186180
000000
c30c00
c30c00
000000
ENDCHAR
STARTCHAR C003
ENCODING 3
SWIDTH 1440 0
DWIDTH 18 0
BBX 15 27 0 0
BITMAP
c30000
c30000
000000
c30000
c30000
000000
db0000
db0000
000000
c30000
c30000
000000
c30000
c30000
000000
036c00
036c00
000000
006000
006000
000000
006000
006000
000000
006000
006000
000000
ENDCHAR
STARTCHAR C004
ENCODING 4
SWIDTH 1440 0
DWIDTH 18 0
BBX 15 27 0 0
BITMAP
db0000
db0000
000000
c00000
c00000
000000
d80000
d80000
000000
c00000
c00000
000000
c36c00
c36c00
000000
030000
030000
000000
036000
036000
000000
030000
030000
000000
030000
030000
000000
ENDCHAR
STARTCHAR C005
ENCODING 5
SWIDTH 1440 0
DWIDTH 18 0
BBX 15 27 0 0
BITMAP
1b0000
1b0000
000000
c00000
c00000
000000
c00000
c00000
000000
1b0000
1b0000
000000
036000
036000
000000
030c00
030c00
000000
036000
036000
000000
030c00
030c00
000000
030c00
030c00
000000
ENDCHAR
STARTCHAR C006
ENCODING 6
SWIDTH 1440 0
DWIDTH 18 0
BBX 15 27 0 0
BITMAP
c00000
c00000
000000
c00000
c00000
000000
c00000
c00000
000000
db0000
db0000
000000
036c00
036c00
000000
030000
030000
000000
036000
036000
000000
030000
030000
000000
030000
030000
000000
ENDCHAR
STARTCHAR C007
ENCODING 7
SWIDTH 1440 0
DWIDTH 18 0
BBX 12 12 3 15
BITMAP
1b0000
1b0000
000000
c06000
c06000
000000
c06000
c06000
000000
1b0000
1b0000
000000
ENDCHAR
STARTCHAR C010
ENCODING 8
SWIDTH 1440 0
DWIDTH 18 0
BBX 15 21 0 3
BITMAP
030000
030000
000000
030000
030000
000000
db6c00
db6c00
000000
030000
030000
000000
030000
030000
000000
000000
000000
000000
db6c00
db6c00
000000
ENDCHAR
STARTCHAR C011
ENCODING 9
SWIDTH 1440 0
DWIDTH 18 0
BBX 15 27 0 0
BITMAP
c06000
c06000
000000
d86000
d86000
000000
c36000
c36000
000000
c06000
c06000
000000
030000
030000
000000
030000
030000
000000
030000
030000
000000
030000
030000
000000
036c00
036c00
000000
ENDCHAR
STARTCHAR C012
ENCODING 10
SWIDTH 1440 0
DWIDTH 18 0
BBX 15 27 0 0
BITMAP
c30000
c30000
000000
c30000
c30000
000000
c30000
c30000
000000
180000
180000
000000
180000
180000
000000
036c00
036c00
000000
006000
006000
000000
006000
006000
000000
006000
006000
000000
ENDCHAR
STARTCHAR C013
ENCODING 11
SWIDTH 1440 0
DWIDTH 18 0
BBX 9 21 0 12
BITMAP
030000
030000
000000
030000
030000
000000
030000
030000
000000
030000
030000
000000
030000
030000
000000
030000
030000
000000
db0000
db0000
000000
ENDCHAR
STARTCHAR C014
ENCODING 12
SWIDTH 1440 0
DWIDTH 18 0
BBX 9 21 0 -6
BITMAP
db0000
db0000
000000
030000
030000
000000
030000
030000
000000
030000
030000
000000
030000
030000
000000
030000
030000
000000
030000
030000
000000
ENDCHAR
STARTCHAR C015
ENCODING 13
SWIDTH 1440 0
DWIDTH 18 0
BBX 12 21 6 -6
BITMAP
db6000
db6000
000000
c00000
c00000
000000
c00000
c00000
000000
c00000
c00000
000000
c00000
c00000
000000
c00000
c00000
000000
c00000
c00000
000000
ENDCHAR
STARTCHAR C016
ENCODING 14
SWIDTH 1440 0
DWIDTH 18 0
BBX 12 21 6 12
BITMAP
c00000
c00000
000000
c00000
c00000
000000
c00000
c00000
000000
c00000
c00000
000000
c00000
c00000
000000
c00000
c00000
000000
db6000
db6000
000000
ENDCHAR
STARTCHAR C017
ENCODING 15
SWIDTH 1440 0
DWIDTH 18 0
BBX 18 39 0 -6
BITMAP
030000
030000
000000
030000
030000
000000
030000
030000
000000
030000
030000
000000
030000
030000
000000
030000
030000
000000
db6d80
db6d80
000000
030000
030000
000000
030000
030000
000000
030000
030000
000000
030000
030000
000000
030000
030000
000000
030000
030000
000000
ENDCHAR
STARTCHAR C022
ENCODING 18
SWIDTH 1440 0
DWIDTH 18 0
BBX 18 3 0 12
BITMAP
db6d80
db6d80
000000
ENDCHAR
STARTCHAR C025
ENCODING 21
SWIDTH 1440 0
DWIDTH 18 0
BBX 12 39 6 -6
BITMAP
c00000
c00000
000000
c00000
c00000
000000
c00000
c00000
000000
c00000
c00000
000000
c00000
c00000
000000
c00000
c00000
000000
db6000
db6000
000000
c00000
c00000
000000
c00000
c00000
000000
c00000
c00000
000000
c00000
c00000
000000
c00000
c00000
000000
c00000
c00000
000000
ENDCHAR
STARTCHAR C026
ENCODING 22
SWIDTH 1440 0
DWIDTH 18 0
BBX 9 39 0 -6
BITMAP
030000
030000
000000
030000
030000
000000
030000
030000
000000
030000
030000
000000
030000
030000
000000
030000
030000
000000
db0000
db0000
000000
030000
030000
000000
030000
030000
000000
030000
030000
000000
030000
030000
000000
030000
030000
000000
030000
030000
000000
ENDCHAR
STARTCHAR C027
ENCODING 23
SWIDTH 1440 0
DWIDTH 18 0
BBX 18 21 0 12
BITMAP
030000
030000
000000
030000
030000
000000
030000
030000
000000
030000
030000
000000
030000
030000
000000
030000
030000
000000
db6d80
db6d80
000000
ENDCHAR
STARTCHAR C030
ENCODING 24
SWIDTH 1440 0
DWIDTH 18 0
BBX 18 21 0 -6
BITMAP
db6d80
db6d80
000000
030000
030000
000000
030000
030000
000000
030000
030000
000000
030000
030000
000000
030000
030000
000000
030000
030000
000000
ENDCHAR
STARTCHAR C031
ENCODING 25
SWIDTH 1440 0
DWIDTH 18 0
BBX 3 39 6 -6
BITMAP
c00000
c00000
000000
c00000
c00000
000000
c00000
c00000
000000
c00000
c00000
000000
c00000
c00000
000000
c00000
c00000
000000
c00000
c00000
000000
c00000
c00000
000000
c00000
c00000
000000
c00000
c00000
000000
c00000
c00000
000000
c00000
c00000
000000
c00000
c00000
000000
ENDCHAR
STARTCHAR C032
ENCODING 26
SWIDTH 1440 0
DWIDTH 18 0
BBX 15 21 0 3
BITMAP
006c00
006c00
000000
1b0000
1b0000
000000
c00000
c00000
000000
1b0000
1b0000
000000
006c00
006c00
000000
000000
000000
000000
db6c00
db6c00
000000
ENDCHAR
STARTCHAR C033
ENCODING 27
SWIDTH 1440 0
DWIDTH 18 0
BBX 15 21 0 3
BITMAP
d80000
d80000
000000
036000
036000
000000
000c00
000c00
000000
036000
036000
000000
d80000
d80000
000000
000000
000000
000000
db6c00
db6c00
000000
ENDCHAR
STARTCHAR C034
ENCODING 28
SWIDTH 1440 0
DWIDTH 18 0
BBX 15 18 0 0
BITMAP
db6c00
db6c00
000000
186000
186000
000000
186000
186000
000000
186000
186000
000000
186000
186000
000000
186000
186000
000000
ENDCHAR
STARTCHAR C035
ENCODING 29
SWIDTH 1440 0
DWIDTH 18 0
BBX 15 15 0 3
BITMAP
000c00
000c00
000000
db6c00
db6c00
000000
030000
030000
000000
db6c00
db6c00
000000
c00000
c00000
000000
ENDCHAR
STARTCHAR C036
ENCODING 30
SWIDTH 1440 0
DWIDTH 18 0
BBX 15 27 0 0
BITMAP
036000
036000
000000
180c00
180c00
000000
180000
180000
000000
180000
180000
000000
db0000
db0000
000000
180000
180000
000000
180000
180000
000000
180c00
180c00
000000
c36000
c36000
000000
ENDCHAR
STARTCHAR C037
ENCODING 31
SWIDTH 1440 0
DWIDTH 18 0
BBX 6 3 6 12
BITMAP
d80000
d80000
000000
ENDCHAR
STARTCHAR space
ENCODING 32
SWIDTH 1440 0
DWIDTH 18 0
BBX 0 0 0 0
BITMAP
ENDCHAR
STARTCHAR exclam
ENCODING 33
SWIDTH 1440 0
DWIDTH 18 0
BBX 3 27 6 0
BITMAP
c00000
c00000
000000
c00000
c00000
000000
c00000
c00000
000000
c00000
c00000
000000
c00000
c00000
000000
c00000
c00000
000000
c00000
c00000
000000
000000
000000
000000
c00000
c00000
000000
ENDCHAR
STARTCHAR quotedbl
ENCODING 34
SWIDTH 1440 0
DWIDTH 18 0
BBX 9 9 3 18
BITMAP
c30000
c30000
000000
c30000
c30000
000000
c30000
c30000
000000
ENDCHAR
STARTCHAR numbersign
ENCODING 35
SWIDTH 1440 0
DWIDTH 18 0
BBX 15 21 0 3
BITMAP
186000
186000
000000
186000
186000
000000
db6c00
db6c00
000000
186000
186000
000000
db6c00
db6c00
000000
186000
186000
000000
186000
186000
000000
ENDCHAR
STARTCHAR dollar
ENCODING 36
SWIDTH 1440 0
DWIDTH 18 0
BBX 15 27 0 0
BITMAP
030000
030000
000000
1b6c00
1b6c00
000000
c30000
c30000
000000
c30000
c30000
000000
1b6000
1b6000
000000
030c00
030c00
000000
030c00
030c00
000000
db6000
db6000
000000
030000
030000
000000
ENDCHAR
STARTCHAR percent
ENCODING 37
SWIDTH 1440 0
DWIDTH 18 0
BBX 15 27 0 0
BITMAP
180c00
180c00
000000
c30c00
c30c00
000000
186000
186000
000000
006000
006000
000000
030000
030000
000000
180000
180000
000000
186000
186000
000000
c30c00
c30c00
000000
c06000
c06000
000000
ENDCHAR
STARTCHAR ampersand
ENCODING 38
SWIDTH 1440 0
DWIDTH 18 0
BBX 15 24 0 0
BITMAP
180000
180000
000000
c30000
c30000
000000
c30000
c30000
000000
180000
180000
000000
c30000
c30000
000000
c06c00
c06c00
000000
c06000
c06000
000000
1b0c00
1b0c00
000000
ENDCHAR
STARTCHAR apostrophe
ENCODING 39
SWIDTH 1440 0
DWIDTH 18 0
BBX 3 9 6 18
BITMAP
c00000
c00000
000000
c00000
c00000
000000
c00000
c00000
000000
ENDCHAR
STARTCHAR parenleft
ENCODING 40
SWIDTH 1440 0
DWIDTH 18 0
BBX 9 33 3 -3
BITMAP
030000
030000
000000
180000
180000
000000
180000
180000
000000
c00000
c00000
000000
c00000
c00000
000000
c00000
c00000
000000
c00000
c00000
000000
c00000
c00000
000000
180000
180000
000000
180000
180000
000000
030000
030000
000000
ENDCHAR
STARTCHAR parenright
ENCODING 41
SWIDTH 1440 0
DWIDTH 18 0
BBX 9 33 3 -3
BITMAP
c00000
c00000
000000
180000
180000
000000
180000
180000
000000
030000
030000
000000
030000
030000
000000
030000
030000
000000
030000
030000
000000
030000
030000
000000
180000
180000
000000
180000
180000
000000
c00000
c00000
000000
ENDCHAR
STARTCHAR asterisk
ENCODING 42
SWIDTH 1440 0
DWIDTH 18 0
BBX 15 21 0 3
BITMAP
030000
030000
000000
c30c00
c30c00
000000
db6c00
db6c00
000000
1b6000
1b6000
000000
db6c00
db6c00
000000
c30c00
c30c00
000000
030000
030000
000000
ENDCHAR
STARTCHAR plus
ENCODING 43
SWIDTH 1440 0
DWIDTH 18 0
BBX 15 15 0 6
BITMAP
030000
030000
000000
030000
030000
000000
db6c00
db6c00
000000
030000
030000
000000
030000
030000
000000
ENDCHAR
STARTCHAR comma
ENCODING 44
SWIDTH 1440 0
DWIDTH 18 0
BBX 9 9 3 -3
BITMAP
1b0000
1b0000
000000
180000
180000
000000
c00000
c00000
000000
ENDCHAR
STARTCHAR minus
ENCODING 45
SWIDTH 1440 0
DWIDTH 18 0
BBX 15 3 0 12
BITMAP
db6c00
db6c00
000000
ENDCHAR
STARTCHAR period
ENCODING 46
SWIDTH 1440 0
DWIDTH 18 0
BBX 9 9 3 -3
BITMAP
180000
180000
000000
db0000
db0000
000000
180000
180000
000000
ENDCHAR
STARTCHAR slash
ENCODING 47
SWIDTH 1440 0
DWIDTH 18 0
BBX 15 27 0 0
BITMAP
000c00
000c00
000000
000c00
000c00
000000
006000
006000
000000
006000
006000
000000
030000
030000
000000
180000
180000
000000
180000
180000
000000
c00000
c00000
000000
c00000
c00000
000000
ENDCHAR
STARTCHAR 0
ENCODING 48
SWIDTH 1440 0
DWIDTH 18 0
BBX 15 27 0 0
BITMAP
030000
030000
000000
186000
186000
000000
c00c00
c00c00
000000
c00c00
c00c00
000000
c00c00
c00c00
000000
c00c00
c00c00
000000
c00c00
c00c00
000000
186000
186000
000000
030000
030000
000000
ENDCHAR
STARTCHAR 1
ENCODING 49
SWIDTH 1440 0
DWIDTH 18 0
BBX 15 27 0 0
BITMAP
030000
030000
000000
1b0000
1b0000
000000
c30000
c30000
000000
030000
030000
000000
030000
030000
000000
030000
030000
000000
030000
030000
000000
030000
030000
000000
db6c00
db6c00
000000
ENDCHAR
STARTCHAR 2
ENCODING 50
SWIDTH 1440 0
DWIDTH 18 0
BBX 15 27 0 0
BITMAP
1b6000
1b6000
000000
c00c00
c00c00
000000
c00c00
c00c00
000000
000c00
000c00
000000
006000
006000
000000
030000
030000
000000
180000
180000
000000
c00000
c00000
000000
db6c00
db6c00
000000
ENDCHAR
STARTCHAR 3
ENCODING 51
SWIDTH 1440 0
DWIDTH 18 0
BBX 15 27 0 0
BITMAP
db6c00
db6c00
000000
000c00
000c00
000000
006000
006000
000000
030000
030000
000000
1b6000
1b6000
000000
000c00
000c00
000000
000c00
000c00
000000
c00c00
c00c00
000000
1b6000
1b6000
000000
ENDCHAR
STARTCHAR 4
ENCODING 52
SWIDTH 1440 0
DWIDTH 18 0
BBX 15 27 0 0
BITMAP
006000
006000
000000
006000
006000
000000
036000
036000
000000
186000
186000
000000
186000
186000
000000
c06000
c06000
000000
db6c00
db6c00
000000
006000
006000
000000
006000
006000
000000
ENDCHAR
STARTCHAR 5
ENCODING 53
SWIDTH 1440 0
DWIDTH 18 0
BBX 15 27 0 0
BITMAP
db6c00
db6c00
000000
c00000
c00000
000000
c00000
c00000
000000
c36000
c36000
000000
d80c00
d80c00
000000
000c00
000c00
000000
000c00
000c00
000000
c00c00
c00c00
000000
1b6000
1b6000
000000
ENDCHAR
STARTCHAR 6
ENCODING 54
SWIDTH 1440 0
DWIDTH 18 0
BBX 15 27 0 0
BITMAP
1b6000
1b6000
000000
c00c00
c00c00
000000
c00000
c00000
000000
c00000
c00000
000000
db6000
db6000
000000
c00c00
c00c00
000000
c00c00
c00c00
000000
c00c00
c00c00
000000
1b6000
1b6000
000000
ENDCHAR
STARTCHAR 7
ENCODING 55
SWIDTH 1440 0
DWIDTH 18 0
BBX 15 27 0 0
BITMAP
db6c00
db6c00
000000
000c00
000c00
000000
006000
006000
000000
006000
006000
000000
030000
030000
000000
030000
030000
000000
180000
180000
000000
180000
180000
000000
180000
180000
000000
ENDCHAR
STARTCHAR 8
ENCODING 56
SWIDTH 1440 0
DWIDTH 18 0
BBX 15 27 0 0
BITMAP
1b6000
1b6000
000000
c00c00
c00c00
000000
c00c00
c00c00
000000
c00c00
c00c00
000000
1b6000
1b6000
000000
c00c00
c00c00
000000
c00c00
c00c00
000000
c00c00
c00c00
000000
1b6000
1b6000
000000
ENDCHAR
STARTCHAR 9
ENCODING 57
SWIDTH 1440 0
DWIDTH 18 0
BBX 15 27 0 0
BITMAP
1b6000
1b6000
000000
c00c00
c00c00
000000
c00c00
c00c00
000000
c00c00
c00c00
000000
1b6c00
1b6c00
000000
000c00
000c00
000000
000c00
000c00
000000
c00c00
c00c00
000000
1b6000
1b6000
000000
ENDCHAR
STARTCHAR colon
ENCODING 58
SWIDTH 1440 0
DWIDTH 18 0
BBX 9 24 3 -3
BITMAP
180000
180000
000000
db0000
db0000
000000
180000
180000
000000
000000
000000
000000
000000
000000
000000
180000
180000
000000
db0000
db0000
000000
180000
180000
000000
ENDCHAR
STARTCHAR semicolon
ENCODING 59
SWIDTH 1440 0
DWIDTH 18 0
BBX 9 24 3 -3
BITMAP
180000
180000
000000
db0000
db0000
000000
180000
180000
000000
000000
000000
000000
000000
000000
000000
1b0000
1b0000
000000
180000
180000
000000
c00000
c00000
000000
ENDCHAR
STARTCHAR less
ENCODING 60
SWIDTH 1440 0
DWIDTH 18 0
BBX 15 27 0 0
BITMAP
000c00
000c00
000000
006000
006000
000000
030000
030000
000000
180000
180000
000000
c00000
c00000
000000
180000
180000
000000
030000
030000
000000
006000
006000
000000
000c00
000c00
000000
ENDCHAR
STARTCHAR equal
ENCODING 61
SWIDTH 1440 0
DWIDTH 18 0
BBX 15 12 0 6
BITMAP
db6c00
db6c00
000000
000000
000000
000000
000000
000000
000000
db6c00
db6c00
000000
ENDCHAR
STARTCHAR greater
ENCODING 62
SWIDTH 1440 0
DWIDTH 18 0
BBX 15 27 0 0
BITMAP
c00000
c00000
000000
180000
180000
000000
030000
030000
000000
006000
006000
000000
000c00
000c00
000000
006000
006000
000000
030000
030000
000000
180000
180000
000000
c00000
c00000
000000
ENDCHAR
STARTCHAR question
ENCODING 63
SWIDTH 1440 0
DWIDTH 18 0
BBX 15 27 0 0
BITMAP
1b6000
1b6000
000000
c00c00
c00c00
000000
c00c00
c00c00
000000
000c00
000c00
000000
006000
006000
000000
030000
030000
000000
030000
030000
000000
000000
000000
000000
030000
030000
000000
ENDCHAR
STARTCHAR at
ENCODING 64
SWIDTH 1440 0
DWIDTH 18 0
BBX 15 27 0 0
BITMAP
1b6000
1b6000
000000
c00c00
c00c00
000000
c00c00
c00c00
000000
c06c00
c06c00
000000
c30c00
c30c00
000000
c30c00
c30c00
000000
c36000
c36000
000000
c00000
c00000
000000
1b6c00
1b6c00
000000
ENDCHAR
STARTCHAR A
ENCODING 65
SWIDTH 1440 0
DWIDTH 18 0
BBX 15 27 0 0
BITMAP
030000
030000
000000
186000
186000
000000
c00c00
c00c00
000000
c00c00
c00c00
000000
c00c00
c00c00
000000
db6c00
db6c00
000000
c00c00
c00c00
000000
c00c00
c00c00
000000
c00c00
c00c00
000000
ENDCHAR
STARTCHAR B
ENCODING 66
SWIDTH 1440 0
DWIDTH 18 0
BBX 15 27 0 0
BITMAP
db6000
db6000
000000
180c00
180c00
000000
180c00
180c00
000000
180c00
180c00
000000
1b6000
1b6000
000000
180c00
180c00
000000
180c00
180c00
000000
180c00
180c00
000000
db6000
db6000
000000
ENDCHAR
STARTCHAR C
ENCODING 67
SWIDTH 1440 0
DWIDTH 18 0
BBX 15 27 0 0
BITMAP
1b6000
1b6000
000000
c00c00
c00c00
000000
c00000
c00000
000000
c00000
c00000
000000
c00000
c00000
000000
c00000
c00000
000000
c00000
c00000
000000
c00c00
c00c00
000000
1b6000
1b6000
000000
ENDCHAR
STARTCHAR D
ENCODING 68
SWIDTH 1440 0
DWIDTH 18 0
BBX 15 27 0 0
BITMAP
db6000
db6000
000000
180c00
180c00
000000
180c00
180c00
000000
180c00
180c00
000000
180c00
180c00
000000
180c00
180c00
000000
180c00
180c00
000000
180c00
180c00
000000
db6000
db6000
000000
ENDCHAR
STARTCHAR E
ENCODING 69
SWIDTH 1440 0
DWIDTH 18 0
BBX 15 27 0 0
BITMAP
db6c00
db6c00
000000
c00000
c00000
000000
c00000
c00000
000000
c00000
c00000
000000
db6000
db6000
000000
c00000
c00000
000000
c00000
c00000
000000
c00000
c00000
000000
db6c00
db6c00
000000
ENDCHAR
STARTCHAR F
ENCODING 70
SWIDTH 1440 0
DWIDTH 18 0
BBX 15 27 0 0
BITMAP
db6c00
db6c00
000000
c00000
c00000
000000
c00000
c00000
000000
c00000
c00000
000000
db6000
db6000
000000
c00000
c00000
000000
c00000
c00000
000000
c00000
c00000
000000
c00000
c00000
000000
ENDCHAR
STARTCHAR G
ENCODING 71
SWIDTH 1440 0
DWIDTH 18 0
BBX 15 27 0 0
BITMAP
1b6000
1b6000
000000
c00c00
c00c00
000000
c00000
c00000
000000
c00000
c00000
000000
c00000
c00000
000000
c06c00
c06c00
000000
c00c00
c00c00
000000
c00c00
c00c00
000000
1b6000
1b6000
000000
ENDCHAR
STARTCHAR H
ENCODING 72
SWIDTH 1440 0
DWIDTH 18 0
BBX 15 27 0 0
BITMAP
c00c00
c00c00
000000
c00c00
c00c00
000000
c00c00
c00c00
000000
c00c00
c00c00
000000
db6c00
db6c00
000000
c00c00
c00c00
000000
c00c00
c00c00
000000
c00c00
c00c00
000000
c00c00
c00c00
000000
ENDCHAR
STARTCHAR I
ENCODING 73
SWIDTH 1440 0
DWIDTH 18 0
BBX 9 27 3 0
BITMAP
db0000
db0000
000000
180000
180000
000000
180000
180000
000000
180000
180000
000000
180000
180000
000000
180000
180000
000000
180000
180000
000000
180000
180000
000000
db0000
db0000
000000
ENDCHAR
STARTCHAR J
ENCODING 74
SWIDTH 1440 0
DWIDTH 18 0
BBX 15 27 0 0
BITMAP
036c00
036c00
000000
006000
006000
000000
006000
006000
000000
006000
006000
000000
006000
006000
000000
006000
006000
000000
006000
006000
000000
c06000
c06000
000000
1b0000
1b0000
000000
ENDCHAR
STARTCHAR K
ENCODING 75
SWIDTH 1440 0
DWIDTH 18 0
BBX 15 27 0 0
BITMAP
c00c00
c00c00
000000
c00c00
c00c00
000000
c06000
c06000
000000
c30000
c30000
000000
d80000
d80000
000000
c30000
c30000
000000
c06000
c06000
000000
c00c00
c00c00
000000
c00c00
c00c00
000000
ENDCHAR
STARTCHAR L
ENCODING 76
SWIDTH 1440 0
DWIDTH 18 0
BBX 15 27 0 0
BITMAP
c00000
c00000
000000
c00000
c00000
000000
c00000
c00000
000000
c00000
c00000
000000
c00000
c00000
000000
c00000
c00000
000000
c00000
c00000
000000
c00000
c00000
000000
db6c00
db6c00
000000
ENDCHAR
STARTCHAR M
ENCODING 77
SWIDTH 1440 0
DWIDTH 18 0
BBX 15 27 0 0
BITMAP
c00c00
c00c00
000000
c00c00
c00c00
000000
d86c00
d86c00
000000
c30c00
c30c00
000000
c30c00
c30c00
000000
c00c00
c00c00
000000
c00c00
c00c00
000000
c00c00
c00c00
000000
c00c00
c00c00
000000
ENDCHAR
STARTCHAR N
ENCODING 78
SWIDTH 1440 0
DWIDTH 18 0
BBX 15 27 0 0
BITMAP
c00c00
c00c00
000000
d80c00
d80c00
000000
d80c00
d80c00
000000
c30c00
c30c00
000000
c30c00
c30c00
000000
c06c00
c06c00
000000
c06c00
c06c00
000000
c00c00
c00c00
000000
c00c00
c00c00
000000
ENDCHAR
STARTCHAR O
ENCODING 79
SWIDTH 1440 0
DWIDTH 18 0
BBX 15 27 0 0
BITMAP
1b6000
1b6000
000000
c00c00
c00c00
000000
c00c00
c00c00
000000
c00c00
c00c00
000000
c00c00
c00c00
000000
c00c00
c00c00
000000
c00c00
c00c00
000000
c00c00
c00c00
000000
1b6000
1b6000
000000
ENDCHAR
STARTCHAR P
ENCODING 80
SWIDTH 1440 0
DWIDTH 18 0
BBX 15 27 0 0
BITMAP
db6000
db6000
000000
c00c00
c00c00
000000
c00c00
c00c00
000000
c00c00
c00c00
000000
db6000
db6000
000000
c00000
c00000
000000
c00000
c00000
000000
c00000
c00000
000000
c00000
c00000
000000
ENDCHAR
STARTCHAR Q
ENCODING 81
SWIDTH 1440 0
DWIDTH 18 0
BBX 15 30 0 -3
BITMAP
1b6000
1b6000
000000
c00c00
c00c00
000000
c00c00
c00c00
000000
c00c00
c00c00
000000
c00c00
c00c00
000000
c00c00
c00c00
000000
c00c00
c00c00
000000
c30c00
c30c00
000000
1b6000
1b6000
000000
000c00
000c00
000000
ENDCHAR
STARTCHAR R
ENCODING 82
SWIDTH 1440 0
DWIDTH 18 0
BBX 15 27 0 0
BITMAP
db6000
db6000
000000
c00c00
c00c00
000000
c00c00
c00c00
000000
c00c00
c00c00
000000
db6000
db6000
000000
c30000
c30000
000000
c06000
c06000
000000
c00c00
c00c00
000000
c00c00
c00c00
000000
ENDCHAR
STARTCHAR S
ENCODING 83
SWIDTH 1440 0
DWIDTH 18 0
BBX 15 27 0 0
BITMAP
1b6000
1b6000
000000
c00c00
c00c00
000000
c00000
c00000
000000
c00000
c00000
000000
1b6000
1b6000
000000
000c00
000c00
000000
000c00
000c00
000000
c00c00
c00c00
000000
1b6000
1b6000
000000
ENDCHAR
STARTCHAR T
ENCODING 84
SWIDTH 1440 0
DWIDTH 18 0
BBX 15 27 0 0
BITMAP
db6c00
db6c00
000000
030000
030000
000000
030000
030000
000000
030000
030000
000000
030000
030000
000000
030000
030000
000000
030000
030000
000000
030000
030000
000000
030000
030000
000000
ENDCHAR
STARTCHAR U
ENCODING 85
SWIDTH 1440 0
DWIDTH 18 0
BBX 15 27 0 0
BITMAP
c00c00
c00c00
000000
c00c00
c00c00
000000
c00c00
c00c00
000000
c00c00
c00c00
000000
c00c00
c00c00
000000
c00c00
c00c00
000000
c00c00
c00c00
000000
c00c00
c00c00
000000
1b6000
1b6000
000000
ENDCHAR
STARTCHAR V
ENCODING 86
SWIDTH 1440 0
DWIDTH 18 0
BBX 15 27 0 0
BITMAP
c00c00
c00c00
000000
c00c00
c00c00
000000
c00c00
c00c00
000000
c00c00
c00c00
000000
186000
186000
000000
186000
186000
000000
186000
186000
000000
030000
030000
000000
030000
030000
000000
ENDCHAR
STARTCHAR W
ENCODING 87
SWIDTH 1440 0
DWIDTH 18 0
BBX 15 27 0 0
BITMAP
c00c00
c00c00
000000
c00c00
c00c00
000000
c00c00
c00c00
000000
c00c00
c00c00
000000
c30c00
c30c00
000000
c30c00
c30c00
000000
c30c00
c30c00
000000
c30c00
c30c00
000000
186000
186000
000000
ENDCHAR
STARTCHAR X
ENCODING 88
SWIDTH 1440 0
DWIDTH 18 0
BBX 15 27 0 0
BITMAP
c00c00
c00c00
000000
c00c00
c00c00
000000
186000
186000
000000
186000
186000
000000
030000
030000
000000
186000
186000
000000
186000
186000
000000
c00c00
c00c00
000000
c00c00
c00c00
000000
ENDCHAR
STARTCHAR Y
ENCODING 89
SWIDTH 1440 0
DWIDTH 18 0
BBX 15 27 0 0
BITMAP
c00c00
c00c00
000000
c00c00
c00c00
000000
186000
186000
000000
186000
186000
000000
030000
030000
000000
030000
030000
000000
030000
030000
000000
030000
030000
000000
030000
030000
000000
ENDCHAR
STARTCHAR Z
ENCODING 90
SWIDTH 1440 0
DWIDTH 18 0
BBX 15 27 0 0
BITMAP
db6c00
db6c00
000000
000c00
000c00
000000
006000
006000
000000
006000
006000
000000
030000
030000
000000
180000
180000
000000
180000
180000
000000
c00000
c00000
000000
db6c00
db6c00
000000
ENDCHAR
STARTCHAR bracketleft
ENCODING 91
SWIDTH 1440 0
DWIDTH 18 0
BBX 9 33 3 -3
BITMAP
db0000
db0000
000000
c00000
c00000
000000
c00000
c00000
000000
c00000
c00000
000000
c00000
c00000
000000
c00000
c00000
000000
c00000
c00000
000000
c00000
c00000
000000
c00000
c00000
000000
c00000
c00000
000000
db0000
db0000
000000
ENDCHAR
STARTCHAR backslash
ENCODING 92
SWIDTH 1440 0
DWIDTH 18 0
BBX 15 27 0 0
BITMAP
c00000
c00000
000000
c00000
c00000
000000
180000
180000
000000
180000
180000
000000
030000
030000
000000
006000
006000
000000
006000
006000
000000
000c00
000c00
000000
000c00
000c00
000000
ENDCHAR
STARTCHAR bracketright
ENCODING 93
SWIDTH 1440 0
DWIDTH 18 0
BBX 9 33 3 -3
BITMAP
db0000
db0000
000000
030000
030000
000000
030000
030000
000000
030000
030000
000000
030000
030000
000000
030000
030000
000000
030000
030000
000000
030000
030000
000000
030000
030000
000000
030000
030000
000000
db0000
db0000
000000
ENDCHAR
STARTCHAR asciicircum
ENCODING 94
SWIDTH 1440 0
DWIDTH 18 0
BBX 15 9 0 18
BITMAP
030000
030000
000000
186000
186000
000000
c00c00
c00c00
000000
ENDCHAR
STARTCHAR underscore
ENCODING 95
SWIDTH 1440 0
DWIDTH 18 0
BBX 15 3 0 -3
BITMAP
db6c00
db6c00
000000
ENDCHAR
STARTCHAR grave
ENCODING 96
SWIDTH 1440 0
DWIDTH 18 0
BBX 6 6 6 24
BITMAP
c00000
c00000
000000
180000
180000
000000
ENDCHAR
STARTCHAR a
ENCODING 97
SWIDTH 1440 0
DWIDTH 18 0
BBX 15 18 0 0
BITMAP
1b6000
1b6000
000000
000c00
000c00
000000
1b6c00
1b6c00
000000
c00c00
c00c00
000000
c06c00
c06c00
000000
1b0c00
1b0c00
000000
ENDCHAR
STARTCHAR b
ENCODING 98
SWIDTH 1440 0
DWIDTH 18 0
BBX 15 27 0 0
BITMAP
c00000
c00000
000000
c00000
c00000
000000
c00000
c00000
000000
db6000
db6000
000000
c00c00
c00c00
000000
c00c00
c00c00
000000
c00c00
c00c00
000000
c00c00
c00c00
000000
db6000
db6000
000000
ENDCHAR
STARTCHAR c
ENCODING 99
SWIDTH 1440 0
DWIDTH 18 0
BBX 15 18 0 0
BITMAP
1b6000
1b6000
000000
c00c00
c00c00
000000
c00000
c00000
000000
c00000
c00000
000000
c00c00
c00c00
000000
1b6000
1b6000
000000
ENDCHAR
STARTCHAR d
ENCODING 100
SWIDTH 1440 0
DWIDTH 18 0
BBX 15 27 0 0
BITMAP
000c00
000c00
000000
000c00
000c00
000000
000c00
000c00
000000
1b6c00
1b6c00
000000
c00c00
c00c00
000000
c00c00
c00c00
000000
c00c00
c00c00
000000
c00c00
c00c00
000000
1b6c00
1b6c00
000000
ENDCHAR
STARTCHAR e
ENCODING 101
SWIDTH 1440 0
DWIDTH 18 0
BBX 15 18 0 0
BITMAP
1b6000
1b6000
000000
c00c00
c00c00
000000
db6c00
db6c00
000000
c00000
c00000
000000
c00c00
c00c00
000000
1b6000
1b6000
000000
ENDCHAR
STARTCHAR f
ENCODING 102
SWIDTH 1440 0
DWIDTH 18 0
BBX 15 27 0 0
BITMAP
036000
036000
000000
180c00
180c00
000000
180000
180000
000000
180000
180000
000000
db6000
db6000
000000
180000
180000
000000
180000
180000
000000
180000
180000
000000
180000
180000
000000
ENDCHAR
STARTCHAR g
ENCODING 103
SWIDTH 1440 0
DWIDTH 18 0
BBX 15 24 0 -6
BITMAP
1b6000
1b6000
000000
c00c00
c00c00
000000
c00c00
c00c00
000000
c00c00
c00c00
000000
1b6c00
1b6c00
000000
000c00
000c00
000000
c00c00
c00c00
000000
1b6000
1b6000
000000
ENDCHAR
STARTCHAR h
ENCODING 104
SWIDTH 1440 0
DWIDTH 18 0
BBX 15 27 0 0
BITMAP
c00000
c00000
000000
c00000
c00000
000000
c00000
c00000
000000
c36000
c36000
000000
d80c00
d80c00
000000
c00c00
c00c00
000000
c00c00
c00c00
000000
c00c00
c00c00
000000
c00c00
c00c00
000000
ENDCHAR
STARTCHAR i
ENCODING 105
SWIDTH 1440 0
DWIDTH 18 0
BBX 9 24 3 0
BITMAP
180000
180000
000000
000000
000000
000000
d80000
d80000
000000
180000
180000
000000
180000
180000
000000
180000
180000
000000
180000
180000
000000
db0000
db0000
000000
ENDCHAR
STARTCHAR j
ENCODING 106
SWIDTH 1440 0
DWIDTH 18 0
BBX 12 30 0 -6
BITMAP
006000
006000
000000
000000
000000
000000
036000
036000
000000
006000
006000
000000
006000
006000
000000
006000
006000
000000
006000
006000
000000
c06000
c06000
000000
c06000
c06000
000000
1b0000
1b0000
000000
ENDCHAR
STARTCHAR k
ENCODING 107
SWIDTH 1440 0
DWIDTH 18 0
BBX 15 27 0 0
BITMAP
c00000
c00000
000000
c00000
c00000
000000
c00000
c00000
000000
c06000
c06000
000000
c30000
c30000
000000
d80000
d80000
000000
c30000
c30000
000000
c06000
c06000
000000
c00c00
c00c00
000000
ENDCHAR
STARTCHAR l
ENCODING 108
SWIDTH 1440 0
DWIDTH 18 0
BBX 9 27 3 0
BITMAP
d80000
d80000
000000
180000
180000
000000
180000
180000
000000
180000
180000
000000
180000
180000
000000
180000
180000
000000
180000
180000
000000
180000
180000
000000
db0000
db0000
000000
ENDCHAR
STARTCHAR m
ENCODING 109
SWIDTH 1440 0
DWIDTH 18 0
BBX 15 18 0 0
BITMAP
d86000
d86000
000000
c30c00
c30c00
000000
c30c00
c30c00
000000
c30c00
c30c00
000000
c30c00
c30c00
000000
c00c00
c00c00
000000
ENDCHAR
STARTCHAR n
ENCODING 110
SWIDTH 1440 0
DWIDTH 18 0
BBX 15 18 0 0
BITMAP
c36000
c36000
000000
d80c00
d80c00
000000
c00c00
c00c00
000000
c00c00
c00c00
000000
c00c00
c00c00
000000
c00c00
c00c00
000000
ENDCHAR
STARTCHAR o
ENCODING 111
SWIDTH 1440 0
DWIDTH 18 0
BBX 15 18 0 0
BITMAP
1b6000
1b6000
000000
c00c00
c00c00
000000
c00c00
c00c00
000000
c00c00
c00c00
000000
c00c00
c00c00
000000
1b6000
1b6000
000000
ENDCHAR
STARTCHAR p
ENCODING 112
SWIDTH 1440 0
DWIDTH 18 0
BBX 15 24 0 -6
BITMAP
db6000
db6000
000000
c00c00
c00c00
000000
c00c00
c00c00
000000
c00c00
c00c00
000000
db6000
db6000
000000
c00000
c00000
000000
c00000
c00000
000000
c00000
c00000
000000
ENDCHAR
STARTCHAR q
ENCODING 113
SWIDTH 1440 0
DWIDTH 18 0
BBX 15 24 0 -6
BITMAP
1b6c00
1b6c00
000000
c00c00
c00c00
000000
c00c00
c00c00
000000
c00c00
c00c00
000000
1b6c00
1b6c00
000000
000c00
000c00
000000
000c00
000c00
000000
000c00
000c00
000000
ENDCHAR
STARTCHAR r
ENCODING 114
SWIDTH 1440 0
DWIDTH 18 0
BBX 15 18 0 0
BITMAP
c36000
c36000
000000
d80c00
d80c00
000000
c00000
c00000
000000
c00000
c00000
000000
c00000
c00000
000000
c00000
c00000
000000
ENDCHAR
STARTCHAR s
ENCODING 115
SWIDTH 1440 0
DWIDTH 18 0
BBX 15 18 0 0
BITMAP
1b6000
1b6000
000000
c00c00
c00c00
000000
1b0000
1b0000
000000
006000
006000
000000
c00c00
c00c00
000000
1b6000
1b6000
000000
ENDCHAR
STARTCHAR t
ENCODING 116
SWIDTH 1440 0
DWIDTH 18 0
BBX 15 24 0 0
BITMAP
180000
180000
000000
180000
180000
000000
db6000
db6000
000000
180000
180000
000000
180000
180000
000000
180000
180000
000000
180c00
180c00
000000
036000
036000
000000
ENDCHAR
STARTCHAR u
ENCODING 117
SWIDTH 1440 0
DWIDTH 18 0
BBX 15 18 0 0
BITMAP
c00c00
c00c00
000000
c00c00
c00c00
000000
c00c00
c00c00
000000
c00c00
c00c00
000000
c06c00
c06c00
000000
1b0c00
1b0c00
000000
ENDCHAR
STARTCHAR v
ENCODING 118
SWIDTH 1440 0
DWIDTH 18 0
BBX 15 18 0 0
BITMAP
c00c00
c00c00
000000
c00c00
c00c00
000000
c00c00
c00c00
000000
186000
186000
000000
186000
186000
000000
030000
030000
000000
ENDCHAR
STARTCHAR w
ENCODING 119
SWIDTH 1440 0
DWIDTH 18 0
BBX 15 18 0 0
BITMAP
c00c00
c00c00
000000
c00c00
c00c00
000000
c30c00
c30c00
000000
c30c00
c30c00
000000
c30c00
c30c00
000000
186000
186000
000000
ENDCHAR
STARTCHAR x
ENCODING 120
SWIDTH 1440 0
DWIDTH 18 0
BBX 15 18 0 0
BITMAP
c00c00
c00c00
000000
186000
186000
000000
030000
030000
000000
030000
030000
000000
186000
186000
000000
c00c00
c00c00
000000
ENDCHAR
STARTCHAR y
ENCODING 121
SWIDTH 1440 0
DWIDTH 18 0
BBX 15 24 0 -6
BITMAP
c00c00
c00c00
000000
c00c00
c00c00
000000
c00c00
c00c00
000000
c06c00
c06c00
000000
1b0c00
1b0c00
000000
000c00
000c00
000000
c00c00
c00c00
000000
1b6000
1b6000
000000
ENDCHAR
STARTCHAR z
ENCODING 122
SWIDTH 1440 0
DWIDTH 18 0
BBX 15 18 0 0
BITMAP
db6c00
db6c00
000000
006000
006000
000000
030000
030000
000000
180000
180000
000000
c00000
c00000
000000
db6c00
db6c00
000000
ENDCHAR
STARTCHAR braceleft
ENCODING 123
SWIDTH 1440 0
DWIDTH 18 0
BBX 15 33 0 -3
BITMAP
006c00
006c00
000000
030000
030000
000000
030000
030000
000000
030000
030000
000000
030000
030000
000000
d80000
d80000
000000
030000
030000
000000
030000
030000
000000
030000
030000
000000
030000
030000
000000
006c00
006c00
000000
ENDCHAR
STARTCHAR bar
ENCODING 124
SWIDTH 1440 0
DWIDTH 18 0
BBX 3 27 6 0
BITMAP
c00000
c00000
000000
c00000
c00000
000000
c00000
c00000
000000
c00000
c00000
000000
c00000
c00000
000000
c00000
c00000
000000
c00000
c00000
000000
c00000
c00000
000000
c00000
c00000
000000
ENDCHAR
STARTCHAR braceright
ENCODING 125
SWIDTH 1440 0
DWIDTH 18 0
BBX 15 33 0 -3
BITMAP
d80000
d80000
000000
030000
030000
000000
030000
030000
000000
030000
030000
000000
030000
030000
000000
006c00
006c00
000000
030000
030000
000000
030000
030000
000000
030000
030000
000000
030000
030000
000000
d80000
d80000
000000
ENDCHAR
STARTCHAR asciitilde
ENCODING 126
SWIDTH 1440 0
DWIDTH 18 0
BBX 15 9 0 18
BITMAP
180c00
180c00
000000
c30c00
c30c00
000000
c06000
c06000
000000
ENDCHAR
STARTCHAR nobreakspace
ENCODING 160
SWIDTH 1440 0
DWIDTH 18 0
BBX 0 0 0 0
BITMAP
ENDCHAR
STARTCHAR exclamdown
ENCODING 161
SWIDTH 1440 0
DWIDTH 18 0
BBX 3 27 6 0
BITMAP
c00000
c00000
000000
000000
000000
000000
c00000
c00000
000000
c00000
c00000
000000
c00000
c00000
000000
c00000
c00000
000000
c00000
c00000
000000
c00000
c00000
000000
c00000
c00000
000000
ENDCHAR
STARTCHAR cent
ENCODING 162
SWIDTH 1440 0
DWIDTH 18 0
BBX 15 24 0 3
BITMAP
030000
030000
000000
1b6000
1b6000
000000
c30c00
c30c00
000000
c30000
c30000
000000
c30000
c30000
000000
c30c00
c30c00
000000
1b6000
1b6000
000000
030000
030000
000000
ENDCHAR
STARTCHAR sterling
ENCODING 163
SWIDTH 1440 0
DWIDTH 18 0
BBX 15 27 0 0
BITMAP
036000
036000
000000
180c00
180c00
000000
180000
180000
000000
180000
180000
000000
db0000
db0000
000000
180000
180000
000000
180000
180000
000000
180c00
180c00
000000
c36000
c36000
000000
ENDCHAR
STARTCHAR currency
ENCODING 164
SWIDTH 1440 0
DWIDTH 18 0
BBX 15 18 0 3
BITMAP
c00c00
c00c00
000000
1b6000
1b6000
000000
186000
186000
000000
186000
186000
000000
1b6000
1b6000
000000
c00c00
c00c00
000000
ENDCHAR
STARTCHAR yen
ENCODING 165
SWIDTH 1440 0
DWIDTH 18 0
BBX 15 27 0 0
BITMAP
c00c00
c00c00
000000
c00c00
c00c00
000000
186000
186000
000000
186000
186000
000000
db6c00
db6c00
000000
030000
030000
000000
db6c00
db6c00
000000
030000
030000
000000
030000
030000
000000
ENDCHAR
STARTCHAR brokenbar
ENCODING 166
SWIDTH 1440 0
DWIDTH 18 0
BBX 3 27 6 0
BITMAP
c00000
c00000
000000
c00000
c00000
000000
c00000
c00000
000000
c00000
c00000
000000
000000
000000
000000
c00000
c00000
000000
c00000
c00000
000000
c00000
c00000
000000
c00000
c00000
000000
ENDCHAR
STARTCHAR section
ENCODING 167
SWIDTH 1440 0
DWIDTH 18 0
BBX 12 30 3 0
BITMAP
1b0000
1b0000
000000
c06000
c06000
000000
c00000
c00000
000000
1b0000
1b0000
000000
c06000
c06000
000000
c06000
c06000
000000
1b0000
1b0000
000000
006000
006000
000000
c06000
c06000
000000
1b0000
1b0000
000000
ENDCHAR
STARTCHAR diaeresis
ENCODING 168
SWIDTH 1440 0
DWIDTH 18 0
BBX 9 6 3 24
BITMAP
c30000
c30000
000000
c30000
c30000
000000
ENDCHAR
STARTCHAR copyright
ENCODING 169
SWIDTH 1440 0
DWIDTH 18 0
BBX 15 27 0 3
BITMAP
1b6000
1b6000
000000
c00c00
c00c00
000000
c30c00
c30c00
000000
d86c00
d86c00
000000
d80c00
d80c00
000000
d86c00
d86c00
000000
c30c00
c30c00
000000
c00c00
c00c00
000000
1b6000
1b6000
000000
ENDCHAR
STARTCHAR ordfeminine
ENCODING 170
SWIDTH 1440 0
DWIDTH 18 0
BBX 15 21 0 6
BITMAP
1b6000
1b6000
000000
000c00
000c00
000000
1b6c00
1b6c00
000000
c00c00
c00c00
000000
1b6c00
1b6c00
000000
000000
000000
000000
db6c00
db6c00
000000
ENDCHAR
STARTCHAR guillemotleft
ENCODING 171
SWIDTH 1440 0
DWIDTH 18 0
BBX 15 18 0 3
BITMAP
030c00
030c00
000000
186000
186000
000000
c30000
c30000
000000
c30000
c30000
000000
186000
186000
000000
030c00
030c00
000000
ENDCHAR
STARTCHAR notsign
ENCODING 172
SWIDTH 1440 0
DWIDTH 18 0
BBX 15 9 0 6
BITMAP
db6c00
db6c00
000000
000c00
000c00
000000
000c00
000c00
000000
ENDCHAR
STARTCHAR hyphen
ENCODING 173
SWIDTH 1440 0
DWIDTH 18 0
BBX 9 3 3 12
BITMAP
db0000
db0000
000000
ENDCHAR
STARTCHAR registered
ENCODING 174
SWIDTH 1440 0
DWIDTH 18 0
BBX 15 27 0 3
BITMAP
1b6000
1b6000
000000
c00c00
c00c00
000000
db0c00
db0c00
000000
d86c00
d86c00
000000
d86c00
d86c00
000000
db0c00
db0c00
000000
d86c00
d86c00
000000
c00c00
c00c00
000000
1b6000
1b6000
000000
ENDCHAR
STARTCHAR macron
ENCODING 175
SWIDTH 1440 0
DWIDTH 18 0
BBX 15 3 0 24
BITMAP
db6c00
db6c00
000000
ENDCHAR
STARTCHAR degree
ENCODING 176
SWIDTH 1440 0
DWIDTH 18 0
BBX 12 12 3 15
BITMAP
1b0000
1b0000
000000
c06000
c06000
000000
c06000
c06000
000000
1b0000
1b0000
000000
ENDCHAR
STARTCHAR plusminus
ENCODING 177
SWIDTH 1440 0
DWIDTH 18 0
BBX 15 21 0 3
BITMAP
030000
030000
000000
030000
030000
000000
db6c00
db6c00
000000
030000
030000
000000
030000
030000
000000
000000
000000
000000
db6c00
db6c00
000000
ENDCHAR
STARTCHAR twosuperior
ENCODING 178
SWIDTH 1440 0
DWIDTH 18 0
BBX 9 15 0 15
BITMAP
180000
180000
000000
c30000
c30000
000000
030000
030000
000000
180000
180000
000000
db0000
db0000
000000
ENDCHAR
STARTCHAR threesuperior
ENCODING 179
SWIDTH 1440 0
DWIDTH 18 0
BBX 9 15 0 15
BITMAP
180000
180000
000000
c30000
c30000
000000
180000
180000
000000
030000
030000
000000
d80000
d80000
000000
ENDCHAR
STARTCHAR acute
ENCODING 180
SWIDTH 1440 0
DWIDTH 18 0
BBX 6 6 6 24
BITMAP
180000
180000
000000
c00000
c00000
000000
ENDCHAR
STARTCHAR mu
ENCODING 181
SWIDTH 1440 0
DWIDTH 18 0
BBX 15 24 0 -6
BITMAP
c00c00
c00c00
000000
c00c00
c00c00
000000
c00c00
c00c00
000000
c00c00
c00c00
000000
c06c00
c06c00
000000
db0c00
db0c00
000000
c00000
c00000
000000
c00000
c00000
000000
ENDCHAR
STARTCHAR paragraph
ENCODING 182
SWIDTH 1440 0
DWIDTH 18 0
BBX 15 27 0 0
BITMAP
1b6c00
1b6c00
000000
db0c00
db0c00
000000
db0c00
db0c00
000000
db0c00
db0c00
000000
db0c00
db0c00
000000
1b0c00
1b0c00
000000
030c00
030c00
000000
030c00
030c00
000000
030c00
030c00
000000
ENDCHAR
STARTCHAR periodcentered
ENCODING 183
SWIDTH 1440 0
DWIDTH 18 0
BBX 6 3 6 12
BITMAP
d80000
d80000
000000
ENDCHAR
STARTCHAR cedilla
ENCODING 184
SWIDTH 1440 0
DWIDTH 18 0
BBX 6 6 6 -6
BITMAP
180000
180000
000000
c00000
c00000
000000
ENDCHAR
STARTCHAR onesuperior
ENCODING 185
SWIDTH 1440 0
DWIDTH 18 0
BBX 9 15 0 15
BITMAP
180000
180000
000000
d80000
d80000
000000
180000
180000
000000
180000
180000
000000
db0000
db0000
000000
ENDCHAR
STARTCHAR masculine
ENCODING 186
SWIDTH 1440 0
DWIDTH 18 0
BBX 15 21 0 6
BITMAP
1b6000
1b6000
000000
c00c00
c00c00
000000
c00c00
c00c00
000000
c00c00
c00c00
000000
1b6000
1b6000
000000
000000
000000
000000
db6c00
db6c00
000000
ENDCHAR
STARTCHAR guillemotright
ENCODING 187
SWIDTH 1440 0
DWIDTH 18 0
BBX 15 18 0 3
BITMAP
c30000
c30000
000000
186000
186000
000000
030c00
030c00
000000
030c00
030c00
000000
186000
186000
000000
c30000
c30000
000000
ENDCHAR
STARTCHAR onequarter
ENCODING 188
SWIDTH 1440 0
DWIDTH 18 0
BBX 15 30 0 0
BITMAP
180000
180000
000000
d80000
d80000
000000
180000
180000
000000
180000
180000
000000
db0000
db0000
000000
000c00
000c00
000000
006c00
006c00
000000
030c00
030c00
000000
036c00
036c00
000000
000c00
000c00
000000
ENDCHAR
STARTCHAR onehalf
ENCODING 189
SWIDTH 1440 0
DWIDTH 18 0
BBX 15 30 0 0
BITMAP
180000
180000
000000
d80000
d80000
000000
180000
180000
000000
180000
180000
000000
db0000
db0000
000000
006000
006000
000000
030c00
030c00
000000
000c00
000c00
000000
006000
006000
000000
036c00
036c00
000000
ENDCHAR
STARTCHAR threequarters
ENCODING 190
SWIDTH 1440 0
DWIDTH 18 0
BBX 15 30 0 0
BITMAP
180000
180000
000000
c30000
c30000
000000
180000
180000
000000
030000
030000
000000
c30000
c30000
000000
180c00
180c00
000000
006c00
006c00
000000
030c00
030c00
000000
036c00
036c00
000000
000c00
000c00
000000
ENDCHAR
STARTCHAR questiondown
ENCODING 191
SWIDTH 1440 0
DWIDTH 18 0
BBX 15 27 0 0
BITMAP
030000
030000
000000
000000
000000
000000
030000
030000
000000
030000
030000
000000
180000
180000
000000
c00000
c00000
000000
c00c00
c00c00
000000
c00c00
c00c00
000000
1b6000
1b6000
000000
ENDCHAR
STARTCHAR Agrave
ENCODING 192
SWIDTH 1440 0
DWIDTH 18 0
BBX 15 30 0 0
BITMAP
180000
180000
000000
030000
030000
000000
000000
000000
000000
030000
030000
000000
186000
186000
000000
c00c00
c00c00
000000
c00c00
c00c00
000000
db6c00
db6c00
000000
c00c00
c00c00
000000
c00c00
c00c00
000000
ENDCHAR
STARTCHAR Aacute
ENCODING 193
SWIDTH 1440 0
DWIDTH 18 0
BBX 15 30 0 0
BITMAP
006000
006000
000000
030000
030000
000000
000000
000000
000000
030000
030000
000000
186000
186000
000000
c00c00
c00c00
000000
c00c00
c00c00
000000
db6c00
db6c00
000000
c00c00
c00c00
000000
c00c00
c00c00
000000
ENDCHAR
STARTCHAR Acircumflex
ENCODING 194
SWIDTH 1440 0
DWIDTH 18 0
BBX 15 30 0 0
BITMAP
036000
036000
000000
180c00
180c00
000000
000000
000000
000000
030000
030000
000000
186000
186000
000000
c00c00
c00c00
000000
c00c00
c00c00
000000
db6c00
db6c00
000000
c00c00
c00c00
000000
c00c00
c00c00
000000
ENDCHAR
STARTCHAR Atilde
ENCODING 195
SWIDTH 1440 0
DWIDTH 18 0
BBX 15 30 0 0
BITMAP
030c00
030c00
000000
186000
186000
000000
000000
000000
000000
030000
030000
000000
186000
186000
000000
c00c00
c00c00
000000
c00c00
c00c00
000000
db6c00
db6c00
000000
c00c00
c00c00
000000
c00c00
c00c00
000000
ENDCHAR
STARTCHAR Adiaeresis
ENCODING 196
SWIDTH 1440 0
DWIDTH 18 0
BBX 15 30 0 0
BITMAP
186000
186000
000000
186000
186000
000000
000000
000000
000000
030000
030000
000000
186000
186000
000000
c00c00
c00c00
000000
c00c00
c00c00
000000
db6c00
db6c00
000000
c00c00
c00c00
000000
c00c00
c00c00
000000
ENDCHAR
STARTCHAR Aring
ENCODING 197
SWIDTH 1440 0
DWIDTH 18 0
BBX 15 30 0 0
BITMAP
030000
030000
000000
186000
186000
000000
030000
030000
000000
030000
030000
000000
186000
186000
000000
c00c00
c00c00
000000
c00c00
c00c00
000000
db6c00
db6c00
000000
c00c00
c00c00
000000
c00c00
c00c00
000000
ENDCHAR
STARTCHAR AE
ENCODING 198
SWIDTH 1440 0
DWIDTH 18 0
BBX 15 27 0 0
BITMAP
186c00
186c00
000000
c30000
c30000
000000
c30000
c30000
000000
c30000
c30000
000000
c36000
c36000
000000
db0000
db0000
000000
c30000
c30000
000000
c30000
c30000
000000
c36c00
c36c00
000000
ENDCHAR
STARTCHAR Ccedilla
ENCODING 199
SWIDTH 1440 0
DWIDTH 18 0
BBX 15 33 0 -6
BITMAP
1b6000
1b6000
000000
c00c00
c00c00
000000
c00000
c00000
000000
c00000
c00000
000000
c00000
c00000
000000
c00000
c00000
000000
c00000
c00000
000000
c00c00
c00c00
000000
1b6000
1b6000
000000
030000
030000
000000
180000
180000
000000
ENDCHAR
STARTCHAR Egrave
ENCODING 200
SWIDTH 1440 0
DWIDTH 18 0
BBX 15 30 0 0
BITMAP
180000
180000
000000
030000
030000
000000
000000
000000
000000
db6c00
db6c00
000000
c00000
c00000
000000
c00000
c00000
000000
db6000
db6000
000000
c00000
c00000
000000
c00000
c00000
000000
db6c00
db6c00
000000
ENDCHAR
STARTCHAR Eacute
ENCODING 201
SWIDTH 1440 0
DWIDTH 18 0
BBX 15 30 0 0
BITMAP
006000
006000
000000
030000
030000
000000
000000
000000
000000
db6c00
db6c00
000000
c00000
c00000
000000
c00000
c00000
000000
db6000
db6000
000000
c00000
c00000
000000
c00000
c00000
000000
db6c00
db6c00
000000
ENDCHAR
STARTCHAR Ecircumflex
ENCODING 202
SWIDTH 1440 0
DWIDTH 18 0
BBX 15 30 0 0
BITMAP
036000
036000
000000
180c00
180c00
000000
000000
000000
000000
db6c00
db6c00
000000
c00000
c00000
000000
c00000
c00000
000000
db6000
db6000
000000
c00000
c00000
000000
c00000
c00000
000000
db6c00
db6c00
000000
ENDCHAR
STARTCHAR Ediaeresis
ENCODING 203
SWIDTH 1440 0
DWIDTH 18 0
BBX 15 30 0 0
BITMAP
186000
186000
000000
186000
186000
000000
000000
000000
000000
db6c00
db6c00
000000
c00000
c00000
000000
c00000
c00000
000000
db6000
db6000
000000
c00000
c00000
000000
c00000
c00000
000000
db6c00
db6c00
000000
ENDCHAR
STARTCHAR Igrave
ENCODING 204
SWIDTH 1440 0
DWIDTH 18 0
BBX 9 30 3 0
BITMAP
c00000
c00000
000000
180000
180000
000000
000000
000000
000000
db0000
db0000
000000
180000
180000
000000
180000
180000
000000
180000
180000
000000
180000
180000
000000
180000
180000
000000
db0000
db0000
000000
ENDCHAR
STARTCHAR Iacute
ENCODING 205
SWIDTH 1440 0
DWIDTH 18 0
BBX 9 30 3 0
BITMAP
030000
030000
000000
180000
180000
000000
000000
000000
000000
db0000
db0000
000000
180000
180000
000000
180000
180000
000000
180000
180000
000000
180000
180000
000000
180000
180000
000000
db0000
db0000
000000
ENDCHAR
STARTCHAR Icircumflex
ENCODING 206
SWIDTH 1440 0
DWIDTH 18 0
BBX 12 30 3 0
BITMAP
1b0000
1b0000
000000
c06000
c06000
000000
000000
000000
000000
db0000
db0000
000000
180000
180000
000000
180000
180000
000000
180000
180000
000000
180000
180000
000000
180000
180000
000000
db0000
db0000
000000
ENDCHAR
STARTCHAR Idiaeresis
ENCODING 207
SWIDTH 1440 0
DWIDTH 18 0
BBX 9 30 3 0
BITMAP
c30000
c30000
000000
c30000
c30000
000000
000000
000000
000000
db0000
db0000
000000
180000
180000
000000
180000
180000
000000
180000
180000
000000
180000
180000
000000
180000
180000
000000
db0000
db0000
000000
ENDCHAR
STARTCHAR ETH
ENCODING 208
SWIDTH 1440 0
DWIDTH 18 0
BBX 15 27 0 0
BITMAP
db6000
db6000
000000
180c00
180c00
000000
180c00
180c00
000000
180c00
180c00
000000
db0c00
db0c00
000000
180c00
180c00
000000
180c00
180c00
000000
180c00
180c00
000000
db6000
db6000
000000
ENDCHAR
STARTCHAR Ntilde
ENCODING 209
SWIDTH 1440 0
DWIDTH 18 0
BBX 15 30 0 0
BITMAP
030c00
030c00
000000
186000
186000
000000
000000
000000
000000
c00c00
c00c00
000000
c00c00
c00c00
000000
d80c00
d80c00
000000
c30c00
c30c00
000000
c06c00
c06c00
000000
c00c00
c00c00
000000
c00c00
c00c00
000000
ENDCHAR
STARTCHAR Ograve
ENCODING 210
SWIDTH 1440 0
DWIDTH 18 0
BBX 15 30 0 0
BITMAP
180000
180000
000000
030000
030000
000000
000000
000000
000000
1b6000
1b6000
000000
c00c00
c00c00
000000
c00c00
c00c00
000000
c00c00
c00c00
000000
c00c00
c00c00
000000
c00c00
c00c00
000000
1b6000
1b6000
000000
ENDCHAR
STARTCHAR Oacute
ENCODING 211
SWIDTH 1440 0
DWIDTH 18 0
BBX 15 30 0 0
BITMAP
006000
006000
000000
030000
030000
000000
000000
000000
000000
1b6000
1b6000
000000
c00c00
c00c00
000000
c00c00
c00c00
000000
c00c00
c00c00
000000
c00c00
c00c00
000000
c00c00
c00c00
000000
1b6000
1b6000
000000
ENDCHAR
STARTCHAR Ocircumflex
ENCODING 212
SWIDTH 1440 0
DWIDTH 18 0
BBX 15 30 0 0
BITMAP
036000
036000
000000
180c00
180c00
000000
000000
000000
000000
1b6000
1b6000
000000
c00c00
c00c00
000000
c00c00
c00c00
000000
c00c00
c00c00
000000
c00c00
c00c00
000000
c00c00
c00c00
000000
1b6000
1b6000
000000
ENDCHAR
STARTCHAR Otilde
ENCODING 213
SWIDTH 1440 0
DWIDTH 18 0
BBX 15 30 0 0
BITMAP
030c00
030c00
000000
186000
186000
000000
000000
000000
000000
1b6000
1b6000
000000
c00c00
c00c00
000000
c00c00
c00c00
000000
c00c00
c00c00
000000
c00c00
c00c00
000000
c00c00
c00c00
000000
1b6000
1b6000
000000
ENDCHAR
STARTCHAR Odiaeresis
ENCODING 214
SWIDTH 1440 0
DWIDTH 18 0
BBX 15 30 0 0
BITMAP
186000
186000
000000
186000
186000
000000
000000
000000
000000
1b6000
1b6000
000000
c00c00
c00c00
000000
c00c00
c00c00
000000
c00c00
c00c00
000000
c00c00
c00c00
000000
c00c00
c00c00
000000
1b6000
1b6000
000000
ENDCHAR
STARTCHAR multiply
ENCODING 215
SWIDTH 1440 0
DWIDTH 18 0
BBX 15 15 0 3
BITMAP
c00c00
c00c00
000000
186000
186000
000000
030000
030000
000000
186000
186000
000000
c00c00
c00c00
000000
ENDCHAR
STARTCHAR Ooblique
ENCODING 216
SWIDTH 1440 0
DWIDTH 18 0
BBX 15 33 0 -3
BITMAP
000c00
000c00
000000
1b6000
1b6000
000000
c06c00
c06c00
000000
c06c00
c06c00
000000
c30c00
c30c00
000000
c30c00
c30c00
000000
c30c00
c30c00
000000
d80c00
d80c00
000000
d80c00
d80c00
000000
1b6000
1b6000
000000
c00000
c00000
000000
ENDCHAR
STARTCHAR Ugrave
ENCODING 217
SWIDTH 1440 0
DWIDTH 18 0
BBX 15 30 0 0
BITMAP
180000
180000
000000
030000
030000
000000
000000
000000
000000
c00c00
c00c00
000000
c00c00
c00c00
000000
c00c00
c00c00
000000
c00c00
c00c00
000000
c00c00
c00c00
000000
c00c00
c00c00
000000
1b6000
1b6000
000000
ENDCHAR
STARTCHAR Uacute
ENCODING 218
SWIDTH 1440 0
DWIDTH 18 0
BBX 15 30 0 0
BITMAP
006000
006000
000000
030000
030000
000000
000000
000000
000000
c00c00
c00c00
000000
c00c00
c00c00
000000
c00c00
c00c00
000000
c00c00
c00c00
000000
c00c00
c00c00
000000
c00c00
c00c00
000000
1b6000
1b6000
000000
ENDCHAR
STARTCHAR Ucircumflex
ENCODING 219
SWIDTH 1440 0
DWIDTH 18 0
BBX 15 30 0 0
BITMAP
036000
036000
000000
180c00
180c00
000000
000000
000000
000000
c00c00
c00c00
000000
c00c00
c00c00
000000
c00c00
c00c00
000000
c00c00
c00c00
000000
c00c00
c00c00
000000
c00c00
c00c00
000000
1b6000
1b6000
000000
ENDCHAR
STARTCHAR Udiaeresis
ENCODING 220
SWIDTH 1440 0
DWIDTH 18 0
BBX 15 30 0 0
BITMAP
186000
186000
000000
186000
186000
000000
000000
000000
000000
c00c00
c00c00
000000
c00c00
c00c00
000000
c00c00
c00c00
000000
c00c00
c00c00
000000
c00c00
c00c00
000000
c00c00
c00c00
000000
1b6000
1b6000
000000
ENDCHAR
STARTCHAR Yacute
ENCODING 221
SWIDTH 1440 0
DWIDTH 18 0
BBX 15 30 0 0
BITMAP
006000
006000
000000
030000
030000
000000
000000
000000
000000
c00c00
c00c00
000000
c00c00
c00c00
000000
186000
186000
000000
030000
030000
000000
030000
030000
000000
030000
030000
000000
030000
030000
000000
ENDCHAR
STARTCHAR THORN
ENCODING 222
SWIDTH 1440 0
DWIDTH 18 0
BBX 15 27 0 0
BITMAP
c00000
c00000
000000
db6000
db6000
000000
c00c00
c00c00
000000
c00c00
c00c00
000000
c00c00
c00c00
000000
db6000
db6000
000000
c00000
c00000
000000
c00000
c00000
000000
c00000
c00000
000000
ENDCHAR
STARTCHAR ssharp
ENCODING 223
SWIDTH 1440 0
DWIDTH 18 0
BBX 15 27 0 0
BITMAP
1b0000
1b0000
000000
c06000
c06000
000000
c06000
c06000
000000
c30000
c30000
000000
c30000
c30000
000000
c06000
c06000
000000
c00c00
c00c00
000000
c00c00
c00c00
000000
c36000
c36000
000000
ENDCHAR
STARTCHAR agrave
ENCODING 224
SWIDTH 1440 0
DWIDTH 18 0
BBX 15 27 0 0
BITMAP
180000
180000
000000
030000
030000
000000
000000
000000
000000
1b6000
1b6000
000000
000c00
000c00
000000
1b6c00
1b6c00
000000
c00c00
c00c00
000000
c06c00
c06c00
000000
1b0c00
1b0c00
000000
ENDCHAR
STARTCHAR aacute
ENCODING 225
SWIDTH 1440 0
DWIDTH 18 0
BBX 15 27 0 0
BITMAP
006000
006000
000000
030000
030000
000000
000000
000000
000000
1b6000
1b6000
000000
000c00
000c00
000000
1b6c00
1b6c00
000000
c00c00
c00c00
000000
c06c00
c06c00
000000
1b0c00
1b0c00
000000
ENDCHAR
STARTCHAR acircumflex
ENCODING 226
SWIDTH 1440 0
DWIDTH 18 0
BBX 15 27 0 0
BITMAP
036000
036000
000000
180c00
180c00
000000
000000
000000
000000
1b6000
1b6000
000000
000c00
000c00
000000
1b6c00
1b6c00
000000
c00c00
c00c00
000000
c06c00
c06c00
000000
1b0c00
1b0c00
000000
ENDCHAR
STARTCHAR atilde
ENCODING 227
SWIDTH 1440 0
DWIDTH 18 0
BBX 15 27 0 0
BITMAP
030c00
030c00
000000
186000
186000
000000
000000
000000
000000
1b6000
1b6000
000000
000c00
000c00
000000
1b6c00
1b6c00
000000
c00c00
c00c00
000000
c06c00
c06c00
000000
1b0c00
1b0c00
000000
ENDCHAR
STARTCHAR adiaeresis
ENCODING 228
SWIDTH 1440 0
DWIDTH 18 0
BBX 15 27 0 0
BITMAP
186000
186000
000000
186000
186000
000000
000000
000000
000000
1b6000
1b6000
000000
000c00
000c00
000000
1b6c00
1b6c00
000000
c00c00
c00c00
000000
c06c00
c06c00
000000
1b0c00
1b0c00
000000
ENDCHAR
STARTCHAR aring
ENCODING 229
SWIDTH 1440 0
DWIDTH 18 0
BBX 15 30 0 0
BITMAP
036000
036000
000000
180c00
180c00
000000
036000
036000
000000
000000
000000
000000
1b6000
1b6000
000000
000c00
000c00
000000
1b6c00
1b6c00
000000
c00c00
c00c00
000000
c06c00
c06c00
000000
1b0c00
1b0c00
000000
ENDCHAR
STARTCHAR ae
ENCODING 230
SWIDTH 1440 0
DWIDTH 18 0
BBX 15 18 0 0
BITMAP
1b6000
1b6000
000000
030c00
030c00
000000
1b6000
1b6000
000000
c30000
c30000
000000
c30c00
c30c00
000000
186000
186000
000000
ENDCHAR
STARTCHAR ccedilla
ENCODING 231
SWIDTH 1440 0
DWIDTH 18 0
BBX 15 24 0 -6
BITMAP
1b6000
1b6000
000000
c00c00
c00c00
000000
c00000
c00000
000000
c00000
c00000
000000
c00c00
c00c00
000000
1b6000
1b6000
000000
030000
030000
000000
180000
180000
000000
ENDCHAR
STARTCHAR egrave
ENCODING 232
SWIDTH 1440 0
DWIDTH 18 0
BBX 15 27 0 0
BITMAP
180000
180000
000000
030000
030000
000000
000000
000000
000000
1b6000
1b6000
000000
c00c00
c00c00
000000
db6c00
db6c00
000000
c00000
c00000
000000
c00c00
c00c00
000000
1b6000
1b6000
000000
ENDCHAR
STARTCHAR eacute
ENCODING 233
SWIDTH 1440 0
DWIDTH 18 0
BBX 15 27 0 0
BITMAP
006000
006000
000000
030000
030000
000000
000000
000000
000000
1b6000
1b6000
000000
c00c00
c00c00
000000
db6c00
db6c00
000000
c00000
c00000
000000
c00c00
c00c00
000000
1b6000
1b6000
000000
ENDCHAR
STARTCHAR ecircumflex
ENCODING 234
SWIDTH 1440 0
DWIDTH 18 0
BBX 15 27 0 0
BITMAP
036000
036000
000000
180c00
180c00
000000
000000
000000
000000
1b6000
1b6000
000000
c00c00
c00c00
000000
db6c00
db6c00
000000
c00000
c00000
000000
c00c00
c00c00
000000
1b6000
1b6000
000000
ENDCHAR
STARTCHAR ediaeresis
ENCODING 235
SWIDTH 1440 0
DWIDTH 18 0
BBX 15 27 0 0
BITMAP
186000
186000
000000
186000
186000
000000
000000
000000
000000
1b6000
1b6000
000000
c00c00
c00c00
000000
db6c00
db6c00
000000
c00000
c00000
000000
c00c00
c00c00
000000
1b6000
1b6000
000000
ENDCHAR
STARTCHAR igrave
ENCODING 236
SWIDTH 1440 0
DWIDTH 18 0
BBX 9 27 3 0
BITMAP
c00000
c00000
000000
180000
180000
000000
000000
000000
000000
d80000
d80000
000000
180000
180000
000000
180000
180000
000000
180000
180000
000000
180000
180000
000000
db0000
db0000
000000
ENDCHAR
STARTCHAR iacute
ENCODING 237
SWIDTH 1440 0
DWIDTH 18 0
BBX 9 27 3 0
BITMAP
030000
030000
000000
180000
180000
000000
000000
000000
000000
d80000
d80000
000000
180000
180000
000000
180000
180000
000000
180000
180000
000000
180000
180000
000000
db0000
db0000
000000
ENDCHAR
STARTCHAR icircumflex
ENCODING 238
SWIDTH 1440 0
DWIDTH 18 0
BBX 12 27 3 0
BITMAP
1b0000
1b0000
000000
c06000
c06000
000000
000000
000000
000000
d80000
d80000
000000
180000
180000
000000
180000
180000
000000
180000
180000
000000
180000
180000
000000
db0000
db0000
000000
ENDCHAR
STARTCHAR idiaeresis
ENCODING 239
SWIDTH 1440 0
DWIDTH 18 0
BBX 9 27 3 0
BITMAP
c30000
c30000
000000
c30000
c30000
000000
000000
000000
000000
d80000
d80000
000000
180000
180000
000000
180000
180000
000000
180000
180000
000000
180000
180000
000000
db0000
db0000
000000
ENDCHAR
STARTCHAR eth
ENCODING 240
SWIDTH 1440 0
DWIDTH 18 0
BBX 15 30 0 0
BITMAP
186000
186000
000000
030000
030000
000000
1b0000
1b0000
000000
006000
006000
000000
1b6000
1b6000
000000
c00c00
c00c00
000000
c00c00
c00c00
000000
c00c00
c00c00
000000
c00c00
c00c00
000000
1b6000
1b6000
000000
ENDCHAR
STARTCHAR ntilde
ENCODING 241
SWIDTH 1440 0
DWIDTH 18 0
BBX 15 27 0 0
BITMAP
030c00
030c00
000000
186000
186000
000000
000000
000000
000000
c36000
c36000
000000
d80c00
d80c00
000000
c00c00
c00c00
000000
c00c00
c00c00
000000
c00c00
c00c00
000000
c00c00
c00c00
000000
ENDCHAR
STARTCHAR ograve
ENCODING 242
SWIDTH 1440 0
DWIDTH 18 0
BBX 15 27 0 0
BITMAP
180000
180000
000000
030000
030000
000000
000000
000000
000000
1b6000
1b6000
000000
c00c00
c00c00
000000
c00c00
c00c00
000000
c00c00
c00c00
000000
c00c00
c00c00
000000
1b6000
1b6000
000000
ENDCHAR
STARTCHAR oacute
ENCODING 243
SWIDTH 1440 0
DWIDTH 18 0
BBX 15 27 0 0
BITMAP
006000
006000
000000
030000
030000
000000
000000
000000
000000
1b6000
1b6000
000000
c00c00
c00c00
000000
c00c00
c00c00
000000
c00c00
c00c00
000000
c00c00
c00c00
000000
1b6000
1b6000
000000
ENDCHAR
STARTCHAR ocircumflex
ENCODING 244
SWIDTH 1440 0
DWIDTH 18 0
BBX 15 27 0 0
BITMAP
036000
036000
000000
180c00
180c00
000000
000000
000000
000000
1b6000
1b6000
000000
c00c00
c00c00
000000
c00c00
c00c00
000000
c00c00
c00c00
000000
c00c00
c00c00
000000
1b6000
1b6000
000000
ENDCHAR
STARTCHAR otilde
ENCODING 245
SWIDTH 1440 0
DWIDTH 18 0
BBX 15 27 0 0
BITMAP
030c00
030c00
000000
186000
186000
000000
000000
000000
000000
1b6000
1b6000
000000
c00c00
c00c00
000000
c00c00
c00c00
000000
c00c00
c00c00
000000
c00c00
c00c00
000000
1b6000
1b6000
000000
ENDCHAR
STARTCHAR odiaeresis
ENCODING 246
SWIDTH 1440 0
DWIDTH 18 0
BBX 15 27 0 0
BITMAP
186000
186000
000000
186000
186000
000000
000000
000000
000000
1b6000
1b6000
000000
c00c00
c00c00
000000
c00c00
c00c00
000000
c00c00
c00c00
000000
c00c00
c00c00
000000
1b6000
1b6000
000000
ENDCHAR
STARTCHAR division
ENCODING 247
SWIDTH 1440 0
DWIDTH 18 0
BBX 15 21 0 3
BITMAP
030000
030000
000000
030000
030000
000000
000000
000000
000000
db6c00
db6c00
000000
000000
000000
000000
030000
030000
000000
030000
030000
000000
ENDCHAR
STARTCHAR oslash
ENCODING 248
SWIDTH 1440 0
DWIDTH 18 0
BBX 15 24 0 -3
BITMAP
000c00
000c00
000000
1b6000
1b6000
000000
c06c00
c06c00
000000
c30c00
c30c00
000000
c30c00
c30c00
000000
d80c00
d80c00
000000
1b6000
1b6000
000000
c00000
c00000
000000
ENDCHAR
STARTCHAR ugrave
ENCODING 249
SWIDTH 1440 0
DWIDTH 18 0
BBX 15 27 0 0
BITMAP
180000
180000
000000
030000
030000
000000
000000
000000
000000
c00c00
c00c00
000000
c00c00
c00c00
000000
c00c00
c00c00
000000
c00c00
c00c00
000000
c06c00
c06c00
000000
1b0c00
1b0c00
000000
ENDCHAR
STARTCHAR uacute
ENCODING 250
SWIDTH 1440 0
DWIDTH 18 0
BBX 15 27 0 0
BITMAP
006000
006000
000000
030000
030000
000000
000000
000000
000000
c00c00
c00c00
000000
c00c00
c00c00
000000
c00c00
c00c00
000000
c00c00
c00c00
000000
c06c00
c06c00
000000
1b0c00
1b0c00
000000
ENDCHAR
STARTCHAR ucircumflex
ENCODING 251
SWIDTH 1440 0
DWIDTH 18 0
BBX 15 27 0 0
BITMAP
036000
036000
000000
180c00
180c00
000000
000000
000000
000000
c00c00
c00c00
000000
c00c00
c00c00
000000
c00c00
c00c00
000000
c00c00
c00c00
000000
c06c00
c06c00
000000
1b0c00
1b0c00
000000
ENDCHAR
STARTCHAR udiaeresis
ENCODING 252
SWIDTH 1440 0
DWIDTH 18 0
BBX 15 27 0 0
BITMAP
186000
186000
000000
186000
186000
000000
000000
000000
000000
c00c00
c00c00
000000
c00c00
c00c00
000000
c00c00
c00c00
000000
c00c00
c00c00
000000
c06c00
c06c00
000000
1b0c00
1b0c00
000000
ENDCHAR
STARTCHAR yacute
ENCODING 253
SWIDTH 1440 0
DWIDTH 18 0
BBX 15 33 0 -6
BITMAP
006000
006000
000000
030000
030000
000000
000000
000000
000000
c00c00
c00c00
000000
c00c00
c00c00
000000
c00c00
c00c00
000000
c06c00
c06c00
000000
1b0c00
1b0c00
000000
000c00
000c00
000000
c00c00
c00c00
000000
1b6000
1b6000
000000
ENDCHAR
STARTCHAR thorn
ENCODING 254
SWIDTH 1440 0
DWIDTH 18 0
BBX 15 30 0 -6
BITMAP
c00000
c00000
000000
c00000
c00000
000000
c36000
c36000
000000
d80c00
d80c00
000000
c00c00
c00c00
000000
c00c00
c00c00
000000
d80c00
d80c00
000000
c36000
c36000
000000
c00000
c00000
000000
c00000
c00000
000000
ENDCHAR
STARTCHAR ydiaeresis
ENCODING 255
SWIDTH 1440 0
DWIDTH 18 0
BBX 15 33 0 -6
BITMAP
186000
186000
000000
186000
186000
000000
000000
000000
000000
c00c00
c00c00
000000
c00c00
c00c00
000000
c00c00
c00c00
000000
c06c00
c06c00
000000
1b0c00
1b0c00
000000
000c00
000c00
000000
c00c00
c00c00
000000
1b6000
1b6000
000000
ENDCHAR
ENDFONT
